<svg xmlns="http://www.w3.org/2000/svg" xmlns:xlink="http://www.w3.org/1999/xlink" width="350.5" height="317.8" viewBox="0 0 350.5 317.8"><defs><linearGradient id="a" x1="144.36" y1="80" x2="191.76" y2="80" gradientUnits="userSpaceOnUse"><stop offset="0" stop-color="#f4698a"/><stop offset="1" stop-color="#da2e2a"/></linearGradient><linearGradient id="b" x1="236.62" y1="151.72" x2="265.67" y2="99.41" xlink:href="#a"/><linearGradient id="c" x1="212.09" y1="31.81" x2="250.41" y2="31.81" xlink:href="#a"/><linearGradient id="d" x1="161.95" y1="248.94" x2="350.48" y2="248.94" xlink:href="#a"/><linearGradient id="e" x1="0" y1="226.1" x2="246.34" y2="226.1" xlink:href="#a"/></defs><path d="M168.1,99.1c3.1,0,17.6-12.2,21-17.3a13.9,13.9,0,0,0,2.6-9,12.4,12.4,0,0,0-12.2-11.9c-6.4,0-10.5,7.2-11.4,7.2s-4.8-7.2-11.5-7.2a12.5,12.5,0,0,0-12.2,11.9,14.5,14.5,0,0,0,2.6,9C150.4,86.9,165,99.1,168.1,99.1Z" transform="translate(0 -16.4)" fill="url(#a)"/><path d="M226.8,114.6a17.9,17.9,0,0,0,3.3,11.4c4.2,6.4,22.7,21.8,26.6,21.8s22.2-15.4,26.5-21.8a17.9,17.9,0,0,0,3.3-11.4,15.7,15.7,0,0,0-15.4-15.1c-8.1,0-13.2,9.1-14.5,9.1s-6-9.1-14.4-9.1A15.7,15.7,0,0,0,226.8,114.6Z" transform="translate(0 -16.4)" fill="url(#b)"/><path d="M231.3,47.3c2.5,0,14.2-9.9,16.9-14a11.1,11.1,0,0,0,2.2-7.3,10.1,10.1,0,0,0-9.9-9.6c-5.2,0-8.5,5.8-9.2,5.8s-3.9-5.8-9.3-5.8a10.1,10.1,0,0,0-9.9,9.6,11.1,11.1,0,0,0,2.2,7.3C217,37.4,228.8,47.3,231.3,47.3Z" transform="translate(0 -16.4)" fill="url(#c)"/><path d="M348.4,205.5c-7.1-25.3-32.7-41.7-58.3-36s-34.9,37.3-38.7,38.1-24.9-23.9-51.3-18.1-41.8,31.5-37.5,57.4c2.5,14.6,9.6,24.6,18.4,33.1,17.5,17,85.6,52.1,97.6,49.4s58.5-63.1,67.2-86.2C350.2,231.8,352.4,219.8,348.4,205.5Z" transform="translate(0 -16.4)" fill="url(#d)"/><path d="M169.2,292.2c-8.3-8-19.7-21.1-23.3-42.5a68.1,68.1,0,0,1,10-48.3,65.2,65.2,0,0,1,40.5-28.5,60.4,60.4,0,0,1,12-1.3c15.5,0,27.6,6.1,36.9,12,.7.4,1.2,0,1-.3-9-18-24.1-32.2-44.8-36.8-35.3-7.9-64.2,25.2-68.7,24.2s-18.1-43.6-51.9-51.1S12.3,134,2.8,167.9C-2.5,187,.4,203.1,6.2,218.4c11.7,30.9,73.6,111.8,90.1,115.5,10.2,2.3,47.3-14,81.1-33,.8-.6.7-1.3.2-1.7A79.7,79.7,0,0,1,169.2,292.2Z" transform="translate(0 -16.4)" fill="url(#e)"/></svg>